<mxfile host="app.diagrams.net" modified="2023-06-29T16:34:57.743Z" agent="Mozilla/5.0 (Windows NT 10.0; Win64; x64) AppleWebKit/537.36 (KHTML, like Gecko) Chrome/111.0.0.0 Safari/537.36" etag="bQXKOSiNH3DVcxa_wCTy" version="21.5.2" type="google">
  <diagram name="Página-1" id="88PG_5Ypo7Cuoi6rT-1I">
    <mxGraphModel grid="1" page="1" gridSize="10" guides="1" tooltips="1" connect="1" arrows="1" fold="1" pageScale="1" pageWidth="827" pageHeight="1169" math="0" shadow="0">
      <root>
        <mxCell id="0" />
        <mxCell id="1" parent="0" />
        <mxCell id="-uS1xxPNbjX5ovQZobzU-13" value="FondoInversionInmobiliaria" style="swimlane;fontStyle=1;align=center;verticalAlign=top;childLayout=stackLayout;horizontal=1;startSize=26;horizontalStack=0;resizeParent=1;resizeParentMax=0;resizeLast=0;collapsible=1;marginBottom=0;whiteSpace=wrap;html=1;" vertex="1" parent="1">
          <mxGeometry x="285" y="480" width="235" height="164" as="geometry" />
        </mxCell>
        <mxCell id="-uS1xxPNbjX5ovQZobzU-14" value="- Nombre: type" style="text;strokeColor=none;fillColor=none;align=left;verticalAlign=top;spacingLeft=4;spacingRight=4;overflow=hidden;rotatable=0;points=[[0,0.5],[1,0.5]];portConstraint=eastwest;whiteSpace=wrap;html=1;" vertex="1" parent="-uS1xxPNbjX5ovQZobzU-13">
          <mxGeometry y="26" width="235" height="26" as="geometry" />
        </mxCell>
        <mxCell id="-uS1xxPNbjX5ovQZobzU-98" value="+Activos_Inmobiliarios: type" style="text;strokeColor=none;fillColor=none;align=left;verticalAlign=top;spacingLeft=4;spacingRight=4;overflow=hidden;rotatable=0;points=[[0,0.5],[1,0.5]];portConstraint=eastwest;whiteSpace=wrap;html=1;" vertex="1" parent="-uS1xxPNbjX5ovQZobzU-13">
          <mxGeometry y="52" width="235" height="26" as="geometry" />
        </mxCell>
        <mxCell id="-uS1xxPNbjX5ovQZobzU-97" value="+Capital_Invertido: type" style="text;strokeColor=none;fillColor=none;align=left;verticalAlign=top;spacingLeft=4;spacingRight=4;overflow=hidden;rotatable=0;points=[[0,0.5],[1,0.5]];portConstraint=eastwest;whiteSpace=wrap;html=1;" vertex="1" parent="-uS1xxPNbjX5ovQZobzU-13">
          <mxGeometry y="78" width="235" height="26" as="geometry" />
        </mxCell>
        <mxCell id="-uS1xxPNbjX5ovQZobzU-15" value="" style="line;strokeWidth=1;fillColor=none;align=left;verticalAlign=middle;spacingTop=-1;spacingLeft=3;spacingRight=3;rotatable=0;labelPosition=right;points=[];portConstraint=eastwest;strokeColor=inherit;" vertex="1" parent="-uS1xxPNbjX5ovQZobzU-13">
          <mxGeometry y="104" width="235" height="8" as="geometry" />
        </mxCell>
        <mxCell id="-uS1xxPNbjX5ovQZobzU-16" value="+ agregar_activo_inmobiliario(type): type" style="text;strokeColor=none;fillColor=none;align=left;verticalAlign=top;spacingLeft=4;spacingRight=4;overflow=hidden;rotatable=0;points=[[0,0.5],[1,0.5]];portConstraint=eastwest;whiteSpace=wrap;html=1;" vertex="1" parent="-uS1xxPNbjX5ovQZobzU-13">
          <mxGeometry y="112" width="235" height="26" as="geometry" />
        </mxCell>
        <mxCell id="-uS1xxPNbjX5ovQZobzU-102" value="+ calcular_rentabilidad(): type" style="text;strokeColor=none;fillColor=none;align=left;verticalAlign=top;spacingLeft=4;spacingRight=4;overflow=hidden;rotatable=0;points=[[0,0.5],[1,0.5]];portConstraint=eastwest;whiteSpace=wrap;html=1;" vertex="1" parent="-uS1xxPNbjX5ovQZobzU-13">
          <mxGeometry y="138" width="235" height="26" as="geometry" />
        </mxCell>
        <mxCell id="-uS1xxPNbjX5ovQZobzU-17" value="InmuebleSimpleyMultifamiliar" style="swimlane;fontStyle=1;align=center;verticalAlign=top;childLayout=stackLayout;horizontal=1;startSize=26;horizontalStack=0;resizeParent=1;resizeParentMax=0;resizeLast=0;collapsible=1;marginBottom=0;whiteSpace=wrap;html=1;" vertex="1" parent="1">
          <mxGeometry x="250" y="-50" width="230" height="216" as="geometry" />
        </mxCell>
        <mxCell id="-uS1xxPNbjX5ovQZobzU-18" value="+Numero_pisos: type" style="text;strokeColor=none;fillColor=none;align=left;verticalAlign=top;spacingLeft=4;spacingRight=4;overflow=hidden;rotatable=0;points=[[0,0.5],[1,0.5]];portConstraint=eastwest;whiteSpace=wrap;html=1;" vertex="1" parent="-uS1xxPNbjX5ovQZobzU-17">
          <mxGeometry y="26" width="230" height="26" as="geometry" />
        </mxCell>
        <mxCell id="-uS1xxPNbjX5ovQZobzU-65" value="+Numero_Apartementos_piso: type" style="text;strokeColor=none;fillColor=none;align=left;verticalAlign=top;spacingLeft=4;spacingRight=4;overflow=hidden;rotatable=0;points=[[0,0.5],[1,0.5]];portConstraint=eastwest;whiteSpace=wrap;html=1;" vertex="1" parent="-uS1xxPNbjX5ovQZobzU-17">
          <mxGeometry y="52" width="230" height="26" as="geometry" />
        </mxCell>
        <mxCell id="-uS1xxPNbjX5ovQZobzU-20" value="+Jardin: type" style="text;strokeColor=none;fillColor=none;align=left;verticalAlign=top;spacingLeft=4;spacingRight=4;overflow=hidden;rotatable=0;points=[[0,0.5],[1,0.5]];portConstraint=eastwest;whiteSpace=wrap;html=1;" vertex="1" parent="-uS1xxPNbjX5ovQZobzU-17">
          <mxGeometry y="78" width="230" height="26" as="geometry" />
        </mxCell>
        <mxCell id="-uS1xxPNbjX5ovQZobzU-64" value="+Área Común" style="text;strokeColor=none;fillColor=none;align=left;verticalAlign=top;spacingLeft=4;spacingRight=4;overflow=hidden;rotatable=0;points=[[0,0.5],[1,0.5]];portConstraint=eastwest;whiteSpace=wrap;html=1;" vertex="1" parent="-uS1xxPNbjX5ovQZobzU-17">
          <mxGeometry y="104" width="230" height="26" as="geometry" />
        </mxCell>
        <mxCell id="-uS1xxPNbjX5ovQZobzU-58" value="+Estacionamieento: type" style="text;strokeColor=none;fillColor=none;align=left;verticalAlign=top;spacingLeft=4;spacingRight=4;overflow=hidden;rotatable=0;points=[[0,0.5],[1,0.5]];portConstraint=eastwest;whiteSpace=wrap;html=1;" vertex="1" parent="-uS1xxPNbjX5ovQZobzU-17">
          <mxGeometry y="130" width="230" height="26" as="geometry" />
        </mxCell>
        <mxCell id="-uS1xxPNbjX5ovQZobzU-19" value="" style="line;strokeWidth=1;fillColor=none;align=left;verticalAlign=middle;spacingTop=-1;spacingLeft=3;spacingRight=3;rotatable=0;labelPosition=right;points=[];portConstraint=eastwest;strokeColor=inherit;" vertex="1" parent="-uS1xxPNbjX5ovQZobzU-17">
          <mxGeometry y="156" width="230" height="8" as="geometry" />
        </mxCell>
        <mxCell id="-uS1xxPNbjX5ovQZobzU-56" value="+calcular_mantenimiento(): type" style="text;strokeColor=none;fillColor=none;align=left;verticalAlign=top;spacingLeft=4;spacingRight=4;overflow=hidden;rotatable=0;points=[[0,0.5],[1,0.5]];portConstraint=eastwest;whiteSpace=wrap;html=1;" vertex="1" parent="-uS1xxPNbjX5ovQZobzU-17">
          <mxGeometry y="164" width="230" height="26" as="geometry" />
        </mxCell>
        <mxCell id="-uS1xxPNbjX5ovQZobzU-61" value="+calcular_ingresos_alquiler(): type" style="text;strokeColor=none;fillColor=none;align=left;verticalAlign=top;spacingLeft=4;spacingRight=4;overflow=hidden;rotatable=0;points=[[0,0.5],[1,0.5]];portConstraint=eastwest;whiteSpace=wrap;html=1;" vertex="1" parent="-uS1xxPNbjX5ovQZobzU-17">
          <mxGeometry y="190" width="230" height="26" as="geometry" />
        </mxCell>
        <mxCell id="-uS1xxPNbjX5ovQZobzU-25" value="InmuebleMinorista" style="swimlane;fontStyle=1;align=center;verticalAlign=top;childLayout=stackLayout;horizontal=1;startSize=26;horizontalStack=0;resizeParent=1;resizeParentMax=0;resizeLast=0;collapsible=1;marginBottom=0;whiteSpace=wrap;html=1;" vertex="1" parent="1">
          <mxGeometry x="550" y="240" width="200" height="202" as="geometry" />
        </mxCell>
        <mxCell id="-uS1xxPNbjX5ovQZobzU-75" value="- Direccion: type" style="text;strokeColor=none;fillColor=none;align=left;verticalAlign=top;spacingLeft=4;spacingRight=4;overflow=hidden;rotatable=0;points=[[0,0.5],[1,0.5]];portConstraint=eastwest;whiteSpace=wrap;html=1;" vertex="1" parent="-uS1xxPNbjX5ovQZobzU-25">
          <mxGeometry y="26" width="200" height="26" as="geometry" />
        </mxCell>
        <mxCell id="-uS1xxPNbjX5ovQZobzU-76" value="+Área_metros_cuadrados:type&lt;span style=&quot;white-space: pre;&quot;&gt;&#x9;&lt;/span&gt;" style="text;strokeColor=none;fillColor=none;align=left;verticalAlign=top;spacingLeft=4;spacingRight=4;overflow=hidden;rotatable=0;points=[[0,0.5],[1,0.5]];portConstraint=eastwest;whiteSpace=wrap;html=1;" vertex="1" parent="-uS1xxPNbjX5ovQZobzU-25">
          <mxGeometry y="52" width="200" height="30" as="geometry" />
        </mxCell>
        <mxCell id="-uS1xxPNbjX5ovQZobzU-77" value="+Numero_Locales: type" style="text;strokeColor=none;fillColor=none;align=left;verticalAlign=top;spacingLeft=4;spacingRight=4;overflow=hidden;rotatable=0;points=[[0,0.5],[1,0.5]];portConstraint=eastwest;whiteSpace=wrap;html=1;" vertex="1" parent="-uS1xxPNbjX5ovQZobzU-25">
          <mxGeometry y="82" width="200" height="30" as="geometry" />
        </mxCell>
        <mxCell id="-uS1xxPNbjX5ovQZobzU-78" value="+Propietario: type" style="text;strokeColor=none;fillColor=none;align=left;verticalAlign=top;spacingLeft=4;spacingRight=4;overflow=hidden;rotatable=0;points=[[0,0.5],[1,0.5]];portConstraint=eastwest;whiteSpace=wrap;html=1;" vertex="1" parent="-uS1xxPNbjX5ovQZobzU-25">
          <mxGeometry y="112" width="200" height="30" as="geometry" />
        </mxCell>
        <mxCell id="-uS1xxPNbjX5ovQZobzU-27" value="" style="line;strokeWidth=1;fillColor=none;align=left;verticalAlign=middle;spacingTop=-1;spacingLeft=3;spacingRight=3;rotatable=0;labelPosition=right;points=[];portConstraint=eastwest;strokeColor=inherit;" vertex="1" parent="-uS1xxPNbjX5ovQZobzU-25">
          <mxGeometry y="142" width="200" height="8" as="geometry" />
        </mxCell>
        <mxCell id="-uS1xxPNbjX5ovQZobzU-28" value="+ calcular_ingresos_ventas(): type" style="text;strokeColor=none;fillColor=none;align=left;verticalAlign=top;spacingLeft=4;spacingRight=4;overflow=hidden;rotatable=0;points=[[0,0.5],[1,0.5]];portConstraint=eastwest;whiteSpace=wrap;html=1;" vertex="1" parent="-uS1xxPNbjX5ovQZobzU-25">
          <mxGeometry y="150" width="200" height="26" as="geometry" />
        </mxCell>
        <mxCell id="-uS1xxPNbjX5ovQZobzU-79" value="+set_propietario(propietario):type" style="text;strokeColor=none;fillColor=none;align=left;verticalAlign=top;spacingLeft=4;spacingRight=4;overflow=hidden;rotatable=0;points=[[0,0.5],[1,0.5]];portConstraint=eastwest;whiteSpace=wrap;html=1;" vertex="1" parent="-uS1xxPNbjX5ovQZobzU-25">
          <mxGeometry y="176" width="200" height="26" as="geometry" />
        </mxCell>
        <mxCell id="-uS1xxPNbjX5ovQZobzU-29" value="InmuebleResidencial" style="swimlane;fontStyle=1;align=center;verticalAlign=top;childLayout=stackLayout;horizontal=1;startSize=26;horizontalStack=0;resizeParent=1;resizeParentMax=0;resizeLast=0;collapsible=1;marginBottom=0;whiteSpace=wrap;html=1;" vertex="1" parent="1">
          <mxGeometry x="-30" y="-50" width="200" height="270" as="geometry">
            <mxRectangle x="130" y="70" width="110" height="30" as="alternateBounds" />
          </mxGeometry>
        </mxCell>
        <mxCell id="-uS1xxPNbjX5ovQZobzU-30" value="- Direccion: type" style="text;strokeColor=none;fillColor=none;align=left;verticalAlign=top;spacingLeft=4;spacingRight=4;overflow=hidden;rotatable=0;points=[[0,0.5],[1,0.5]];portConstraint=eastwest;whiteSpace=wrap;html=1;" vertex="1" parent="-uS1xxPNbjX5ovQZobzU-29">
          <mxGeometry y="26" width="200" height="26" as="geometry" />
        </mxCell>
        <mxCell id="-uS1xxPNbjX5ovQZobzU-32" value="+ Numero_habitaciones: type" style="text;strokeColor=none;fillColor=none;align=left;verticalAlign=top;spacingLeft=4;spacingRight=4;overflow=hidden;rotatable=0;points=[[0,0.5],[1,0.5]];portConstraint=eastwest;whiteSpace=wrap;html=1;" vertex="1" parent="-uS1xxPNbjX5ovQZobzU-29">
          <mxGeometry y="52" width="200" height="30" as="geometry" />
        </mxCell>
        <mxCell id="-uS1xxPNbjX5ovQZobzU-47" value="+Numero_baños:type" style="text;strokeColor=none;fillColor=none;align=left;verticalAlign=top;spacingLeft=4;spacingRight=4;overflow=hidden;rotatable=0;points=[[0,0.5],[1,0.5]];portConstraint=eastwest;whiteSpace=wrap;html=1;" vertex="1" parent="-uS1xxPNbjX5ovQZobzU-29">
          <mxGeometry y="82" width="200" height="30" as="geometry" />
        </mxCell>
        <mxCell id="-uS1xxPNbjX5ovQZobzU-53" value="+Área_metros_cuadrados:type&lt;span style=&quot;white-space: pre;&quot;&gt;&#x9;&lt;/span&gt;" style="text;strokeColor=none;fillColor=none;align=left;verticalAlign=top;spacingLeft=4;spacingRight=4;overflow=hidden;rotatable=0;points=[[0,0.5],[1,0.5]];portConstraint=eastwest;whiteSpace=wrap;html=1;" vertex="1" parent="-uS1xxPNbjX5ovQZobzU-29">
          <mxGeometry y="112" width="200" height="30" as="geometry" />
        </mxCell>
        <mxCell id="-uS1xxPNbjX5ovQZobzU-55" value="+Precio: type" style="text;strokeColor=none;fillColor=none;align=left;verticalAlign=top;spacingLeft=4;spacingRight=4;overflow=hidden;rotatable=0;points=[[0,0.5],[1,0.5]];portConstraint=eastwest;whiteSpace=wrap;html=1;" vertex="1" parent="-uS1xxPNbjX5ovQZobzU-29">
          <mxGeometry y="142" width="200" height="30" as="geometry" />
        </mxCell>
        <mxCell id="-uS1xxPNbjX5ovQZobzU-67" value="+Propietario: type" style="text;strokeColor=none;fillColor=none;align=left;verticalAlign=top;spacingLeft=4;spacingRight=4;overflow=hidden;rotatable=0;points=[[0,0.5],[1,0.5]];portConstraint=eastwest;whiteSpace=wrap;html=1;" vertex="1" parent="-uS1xxPNbjX5ovQZobzU-29">
          <mxGeometry y="172" width="200" height="30" as="geometry" />
        </mxCell>
        <mxCell id="-uS1xxPNbjX5ovQZobzU-31" value="" style="line;strokeWidth=1;fillColor=none;align=left;verticalAlign=middle;spacingTop=-1;spacingLeft=3;spacingRight=3;rotatable=0;labelPosition=right;points=[];portConstraint=eastwest;strokeColor=inherit;" vertex="1" parent="-uS1xxPNbjX5ovQZobzU-29">
          <mxGeometry y="202" width="200" height="8" as="geometry" />
        </mxCell>
        <mxCell id="-uS1xxPNbjX5ovQZobzU-48" value="+get_Precio():type" style="text;strokeColor=none;fillColor=none;align=left;verticalAlign=top;spacingLeft=4;spacingRight=4;overflow=hidden;rotatable=0;points=[[0,0.5],[1,0.5]];portConstraint=eastwest;whiteSpace=wrap;html=1;" vertex="1" parent="-uS1xxPNbjX5ovQZobzU-29">
          <mxGeometry y="210" width="200" height="30" as="geometry" />
        </mxCell>
        <mxCell id="-uS1xxPNbjX5ovQZobzU-52" value="+setPropietario(Propietario):type" style="text;strokeColor=none;fillColor=none;align=left;verticalAlign=top;spacingLeft=4;spacingRight=4;overflow=hidden;rotatable=0;points=[[0,0.5],[1,0.5]];portConstraint=eastwest;whiteSpace=wrap;html=1;" vertex="1" parent="-uS1xxPNbjX5ovQZobzU-29">
          <mxGeometry y="240" width="200" height="30" as="geometry" />
        </mxCell>
        <mxCell id="-uS1xxPNbjX5ovQZobzU-33" value="EdificioApartamentos" style="swimlane;fontStyle=1;align=center;verticalAlign=top;childLayout=stackLayout;horizontal=1;startSize=26;horizontalStack=0;resizeParent=1;resizeParentMax=0;resizeLast=0;collapsible=1;marginBottom=0;whiteSpace=wrap;html=1;" vertex="1" parent="1">
          <mxGeometry x="522.5" y="-50" width="255" height="246" as="geometry" />
        </mxCell>
        <mxCell id="-uS1xxPNbjX5ovQZobzU-62" value="-Direccion: type" style="text;strokeColor=none;fillColor=none;align=left;verticalAlign=top;spacingLeft=4;spacingRight=4;overflow=hidden;rotatable=0;points=[[0,0.5],[1,0.5]];portConstraint=eastwest;whiteSpace=wrap;html=1;" vertex="1" parent="-uS1xxPNbjX5ovQZobzU-33">
          <mxGeometry y="26" width="255" height="26" as="geometry" />
        </mxCell>
        <mxCell id="-uS1xxPNbjX5ovQZobzU-63" value="+Numero_pisos: type" style="text;strokeColor=none;fillColor=none;align=left;verticalAlign=top;spacingLeft=4;spacingRight=4;overflow=hidden;rotatable=0;points=[[0,0.5],[1,0.5]];portConstraint=eastwest;whiteSpace=wrap;html=1;" vertex="1" parent="-uS1xxPNbjX5ovQZobzU-33">
          <mxGeometry y="52" width="255" height="26" as="geometry" />
        </mxCell>
        <mxCell id="-uS1xxPNbjX5ovQZobzU-59" value="+Numero_Apartementos: type" style="text;strokeColor=none;fillColor=none;align=left;verticalAlign=top;spacingLeft=4;spacingRight=4;overflow=hidden;rotatable=0;points=[[0,0.5],[1,0.5]];portConstraint=eastwest;whiteSpace=wrap;html=1;" vertex="1" parent="-uS1xxPNbjX5ovQZobzU-33">
          <mxGeometry y="78" width="255" height="26" as="geometry" />
        </mxCell>
        <mxCell id="-uS1xxPNbjX5ovQZobzU-60" value="+Área_Comercial: type" style="text;strokeColor=none;fillColor=none;align=left;verticalAlign=top;spacingLeft=4;spacingRight=4;overflow=hidden;rotatable=0;points=[[0,0.5],[1,0.5]];portConstraint=eastwest;whiteSpace=wrap;html=1;" vertex="1" parent="-uS1xxPNbjX5ovQZobzU-33">
          <mxGeometry y="104" width="255" height="26" as="geometry" />
        </mxCell>
        <mxCell id="-uS1xxPNbjX5ovQZobzU-54" value="+Propietario: type" style="text;strokeColor=none;fillColor=none;align=left;verticalAlign=top;spacingLeft=4;spacingRight=4;overflow=hidden;rotatable=0;points=[[0,0.5],[1,0.5]];portConstraint=eastwest;whiteSpace=wrap;html=1;" vertex="1" parent="-uS1xxPNbjX5ovQZobzU-33">
          <mxGeometry y="130" width="255" height="30" as="geometry" />
        </mxCell>
        <mxCell id="-uS1xxPNbjX5ovQZobzU-35" value="" style="line;strokeWidth=1;fillColor=none;align=left;verticalAlign=middle;spacingTop=-1;spacingLeft=3;spacingRight=3;rotatable=0;labelPosition=right;points=[];portConstraint=eastwest;strokeColor=inherit;" vertex="1" parent="-uS1xxPNbjX5ovQZobzU-33">
          <mxGeometry y="160" width="255" height="8" as="geometry" />
        </mxCell>
        <mxCell id="-uS1xxPNbjX5ovQZobzU-36" value="+get_propietario(): type" style="text;strokeColor=none;fillColor=none;align=left;verticalAlign=top;spacingLeft=4;spacingRight=4;overflow=hidden;rotatable=0;points=[[0,0.5],[1,0.5]];portConstraint=eastwest;whiteSpace=wrap;html=1;" vertex="1" parent="-uS1xxPNbjX5ovQZobzU-33">
          <mxGeometry y="168" width="255" height="26" as="geometry" />
        </mxCell>
        <mxCell id="-uS1xxPNbjX5ovQZobzU-70" value="+agregar_apartamento(apartamento): type" style="text;strokeColor=none;fillColor=none;align=left;verticalAlign=top;spacingLeft=4;spacingRight=4;overflow=hidden;rotatable=0;points=[[0,0.5],[1,0.5]];portConstraint=eastwest;whiteSpace=wrap;html=1;" vertex="1" parent="-uS1xxPNbjX5ovQZobzU-33">
          <mxGeometry y="194" width="255" height="26" as="geometry" />
        </mxCell>
        <mxCell id="-uS1xxPNbjX5ovQZobzU-69" value="+eliminar_apartamento(apartamento): type" style="text;strokeColor=none;fillColor=none;align=left;verticalAlign=top;spacingLeft=4;spacingRight=4;overflow=hidden;rotatable=0;points=[[0,0.5],[1,0.5]];portConstraint=eastwest;whiteSpace=wrap;html=1;" vertex="1" parent="-uS1xxPNbjX5ovQZobzU-33">
          <mxGeometry y="220" width="255" height="26" as="geometry" />
        </mxCell>
        <mxCell id="-uS1xxPNbjX5ovQZobzU-80" value="InmuebleIndustrial" style="swimlane;fontStyle=1;align=center;verticalAlign=top;childLayout=stackLayout;horizontal=1;startSize=26;horizontalStack=0;resizeParent=1;resizeParentMax=0;resizeLast=0;collapsible=1;marginBottom=0;whiteSpace=wrap;html=1;" vertex="1" parent="1">
          <mxGeometry x="255" y="240" width="220" height="202" as="geometry" />
        </mxCell>
        <mxCell id="-uS1xxPNbjX5ovQZobzU-81" value="- Direccion: type" style="text;strokeColor=none;fillColor=none;align=left;verticalAlign=top;spacingLeft=4;spacingRight=4;overflow=hidden;rotatable=0;points=[[0,0.5],[1,0.5]];portConstraint=eastwest;whiteSpace=wrap;html=1;" vertex="1" parent="-uS1xxPNbjX5ovQZobzU-80">
          <mxGeometry y="26" width="220" height="26" as="geometry" />
        </mxCell>
        <mxCell id="-uS1xxPNbjX5ovQZobzU-82" value="+Área_metros_cuadrados:type&lt;span style=&quot;white-space: pre;&quot;&gt;&#x9;&lt;/span&gt;" style="text;strokeColor=none;fillColor=none;align=left;verticalAlign=top;spacingLeft=4;spacingRight=4;overflow=hidden;rotatable=0;points=[[0,0.5],[1,0.5]];portConstraint=eastwest;whiteSpace=wrap;html=1;" vertex="1" parent="-uS1xxPNbjX5ovQZobzU-80">
          <mxGeometry y="52" width="220" height="30" as="geometry" />
        </mxCell>
        <mxCell id="-uS1xxPNbjX5ovQZobzU-83" value="+Capacidad_produccion : type" style="text;strokeColor=none;fillColor=none;align=left;verticalAlign=top;spacingLeft=4;spacingRight=4;overflow=hidden;rotatable=0;points=[[0,0.5],[1,0.5]];portConstraint=eastwest;whiteSpace=wrap;html=1;" vertex="1" parent="-uS1xxPNbjX5ovQZobzU-80">
          <mxGeometry y="82" width="220" height="30" as="geometry" />
        </mxCell>
        <mxCell id="-uS1xxPNbjX5ovQZobzU-84" value="+Propietario: type" style="text;strokeColor=none;fillColor=none;align=left;verticalAlign=top;spacingLeft=4;spacingRight=4;overflow=hidden;rotatable=0;points=[[0,0.5],[1,0.5]];portConstraint=eastwest;whiteSpace=wrap;html=1;" vertex="1" parent="-uS1xxPNbjX5ovQZobzU-80">
          <mxGeometry y="112" width="220" height="30" as="geometry" />
        </mxCell>
        <mxCell id="-uS1xxPNbjX5ovQZobzU-85" value="" style="line;strokeWidth=1;fillColor=none;align=left;verticalAlign=middle;spacingTop=-1;spacingLeft=3;spacingRight=3;rotatable=0;labelPosition=right;points=[];portConstraint=eastwest;strokeColor=inherit;" vertex="1" parent="-uS1xxPNbjX5ovQZobzU-80">
          <mxGeometry y="142" width="220" height="8" as="geometry" />
        </mxCell>
        <mxCell id="-uS1xxPNbjX5ovQZobzU-86" value="+ calcular_costo_mantenimiento(): type" style="text;strokeColor=none;fillColor=none;align=left;verticalAlign=top;spacingLeft=4;spacingRight=4;overflow=hidden;rotatable=0;points=[[0,0.5],[1,0.5]];portConstraint=eastwest;whiteSpace=wrap;html=1;" vertex="1" parent="-uS1xxPNbjX5ovQZobzU-80">
          <mxGeometry y="150" width="220" height="26" as="geometry" />
        </mxCell>
        <mxCell id="-uS1xxPNbjX5ovQZobzU-87" value="+set_propietario(propietario):type" style="text;strokeColor=none;fillColor=none;align=left;verticalAlign=top;spacingLeft=4;spacingRight=4;overflow=hidden;rotatable=0;points=[[0,0.5],[1,0.5]];portConstraint=eastwest;whiteSpace=wrap;html=1;" vertex="1" parent="-uS1xxPNbjX5ovQZobzU-80">
          <mxGeometry y="176" width="220" height="26" as="geometry" />
        </mxCell>
        <mxCell id="-uS1xxPNbjX5ovQZobzU-88" value="InmuebleComercial" style="swimlane;fontStyle=1;align=center;verticalAlign=top;childLayout=stackLayout;horizontal=1;startSize=26;horizontalStack=0;resizeParent=1;resizeParentMax=0;resizeLast=0;collapsible=1;marginBottom=0;whiteSpace=wrap;html=1;" vertex="1" parent="1">
          <mxGeometry x="-30" y="240" width="200" height="202" as="geometry" />
        </mxCell>
        <mxCell id="-uS1xxPNbjX5ovQZobzU-89" value="- Direccion: type" style="text;strokeColor=none;fillColor=none;align=left;verticalAlign=top;spacingLeft=4;spacingRight=4;overflow=hidden;rotatable=0;points=[[0,0.5],[1,0.5]];portConstraint=eastwest;whiteSpace=wrap;html=1;" vertex="1" parent="-uS1xxPNbjX5ovQZobzU-88">
          <mxGeometry y="26" width="200" height="26" as="geometry" />
        </mxCell>
        <mxCell id="-uS1xxPNbjX5ovQZobzU-90" value="+Área_metros_cuadrados:type&lt;span style=&quot;white-space: pre;&quot;&gt;&#x9;&lt;/span&gt;" style="text;strokeColor=none;fillColor=none;align=left;verticalAlign=top;spacingLeft=4;spacingRight=4;overflow=hidden;rotatable=0;points=[[0,0.5],[1,0.5]];portConstraint=eastwest;whiteSpace=wrap;html=1;" vertex="1" parent="-uS1xxPNbjX5ovQZobzU-88">
          <mxGeometry y="52" width="200" height="30" as="geometry" />
        </mxCell>
        <mxCell id="-uS1xxPNbjX5ovQZobzU-91" value="+Precio_Alquiler: type" style="text;strokeColor=none;fillColor=none;align=left;verticalAlign=top;spacingLeft=4;spacingRight=4;overflow=hidden;rotatable=0;points=[[0,0.5],[1,0.5]];portConstraint=eastwest;whiteSpace=wrap;html=1;" vertex="1" parent="-uS1xxPNbjX5ovQZobzU-88">
          <mxGeometry y="82" width="200" height="30" as="geometry" />
        </mxCell>
        <mxCell id="-uS1xxPNbjX5ovQZobzU-92" value="+Propietario: type" style="text;strokeColor=none;fillColor=none;align=left;verticalAlign=top;spacingLeft=4;spacingRight=4;overflow=hidden;rotatable=0;points=[[0,0.5],[1,0.5]];portConstraint=eastwest;whiteSpace=wrap;html=1;" vertex="1" parent="-uS1xxPNbjX5ovQZobzU-88">
          <mxGeometry y="112" width="200" height="30" as="geometry" />
        </mxCell>
        <mxCell id="-uS1xxPNbjX5ovQZobzU-93" value="" style="line;strokeWidth=1;fillColor=none;align=left;verticalAlign=middle;spacingTop=-1;spacingLeft=3;spacingRight=3;rotatable=0;labelPosition=right;points=[];portConstraint=eastwest;strokeColor=inherit;" vertex="1" parent="-uS1xxPNbjX5ovQZobzU-88">
          <mxGeometry y="142" width="200" height="8" as="geometry" />
        </mxCell>
        <mxCell id="-uS1xxPNbjX5ovQZobzU-94" value="+ calcular_rentabilidad(): type" style="text;strokeColor=none;fillColor=none;align=left;verticalAlign=top;spacingLeft=4;spacingRight=4;overflow=hidden;rotatable=0;points=[[0,0.5],[1,0.5]];portConstraint=eastwest;whiteSpace=wrap;html=1;" vertex="1" parent="-uS1xxPNbjX5ovQZobzU-88">
          <mxGeometry y="150" width="200" height="26" as="geometry" />
        </mxCell>
        <mxCell id="-uS1xxPNbjX5ovQZobzU-95" value="+set_propietario(propietario):type" style="text;strokeColor=none;fillColor=none;align=left;verticalAlign=top;spacingLeft=4;spacingRight=4;overflow=hidden;rotatable=0;points=[[0,0.5],[1,0.5]];portConstraint=eastwest;whiteSpace=wrap;html=1;" vertex="1" parent="-uS1xxPNbjX5ovQZobzU-88">
          <mxGeometry y="176" width="200" height="26" as="geometry" />
        </mxCell>
      </root>
    </mxGraphModel>
  </diagram>
</mxfile>
